M48
;Layer_Color=9474304
;FILE_FORMAT=4:3
METRIC,LZ
;TYPE=PLATED
T1F00S00C0.635
T2F00S00C0.762
T3F00S00C0.813
T4F00S00C2.108
%
T01
X0013843Y0014351
X0018843
X0016343Y0011851
X0014859Y0021082
Y0023622
Y0026162
Y0028702
Y0031242
Y0033782
Y0036322
X0022479
Y0033782
Y0031242
Y0028702
Y0026162
Y0023622
Y0021082
X0034827Y0033782
X0040767
T02
X0002921Y0033782
T03
X0029972Y0012065
Y0024765
Y0027305
X0043522
Y0024765
Y0014605
Y0012065
T04
X0063119Y0032766
X0068579Y0030266
X0074039Y0032766
M30
